/* XPM */
static char*QPushButton[]={
"32 32 31 1",
"b c #808080",
"y c #6d6d6d",
"g c #5a5a5a",
"l c #3f3f3f",
"c c #a0a0a0",
"p c #474747",
"a c #c3c3c3",
"d c #8d8d8d",
"e c #343434",
"q c #191919",
"C c #7a7a7a",
"f c #212121",
"w c #5f5f5f",
"u c #676767",
"j c #414141",
"i c #7f7f7f",
"A c #878787",
"v c #595959",
"z c #616161",
"h c #9f9f9f",
"o c #797979",
"n c #818181",
"# c #303030",
"m c #404040",
"k c #868686",
"s c #353535",
". c None",
"r c #2a2a2a",
"x c #4d4d4d",
"B c #939393",
"t c #3a3a3a",
"................................",
"................................",
"................................",
"................................",
"................................",
"................................",
"................................",
"................................",
".##############################.",
".#aaaaaaaaaaaaaaaaaaaaaaaaaaab#.",
".#aaaaaaaaaaaaaaaaaaaaaaaaaabb#.",
".#aaccccccccccccccccccccccccbb#.",
".#aaccccccdeffghijhklcccccccbb#.",
".#aaccccccmbcclnijopccccccccbb#.",
".#aaccccccmbcclniqrkccccccccbb#.",
".#aaccccccmbcclnieksccccccccbb#.",
".#aaccccccmbcclnijctkcccccccbb#.",
".#aaccccccuvwwxdijccfcccccccbb#.",
".#aacccccccyzzAhBCcccnccccccbb#.",
".#abbbbbbbbbbbbbbbbbbbbbbbbbbb#.",
".#bbbbbbbbbbbbbbbbbbbbbbbbbbbb#.",
".##############################.",
"................................",
"................................",
"................................",
"................................",
"................................",
"................................",
"................................",
"................................",
"................................",
"................................"};
