/* XPM */
static char *checkbutton_xpm[] = {
/* columns rows colors chars-per-pixel */
"21 21 6 1",
"  c Gray0",
". c #7b7b7b",
"X c #d6d6d6",
"o c #b3cece",
"O c Gray100",
"+ c None",
/* pixels */
"+++++++++++++++++++++",
"+++++++++++++++++++++",
"+++++++++++++++++++++",
"+++++++++++++++++++++",
"+++++++++++++++++++++",
"+++++OOOOOOOOOOO+++++",
"+++++OXXXXXXXXX +++++",
"+++++OXXXXXXXX. +++++",
"+++++OXXXXXXXX. +++++",
"+++++OXXXXXXXX. +++++",
"+++++OXXXXXXXX. +++++",
"+++++OXXXXXXXX. +++++",
"+++++OXXXXXXXX. +++++",
"+++++OXXXXXXXX. +++++",
"+++++OX........ +++++",
"+++++O          +++++",
"+++++++++++++++++++++",
"+++++++++++++++++++++",
"+++++++++++++++++++++",
"+++++++++++++++++++++",
"+++++++++++++++++++++"
};
