/* XPM */
static char * combo1_xpm[] = {
"32 32 7 1",
" 	c None",
".	c #DCDCDC",
"+	c #585858",
"@	c #808080",
"#	c #A0A0A0",
"$	c #FFFFFF",
"%	c #C3C3C3",
"                                ",
"                                ",
"                                ",
"                                ",
"                                ",
"                                ",
"  ............................. ",
"  ...........................+  ",
"  ..@@@@@@@@@@@@@@@@@       #+  ",
"  ..@$$$$$$$$$$$$$$$        #+  ",
"  ..@$$$$$$$$$$$$$$$         +  ",
"  ..@$$$$$$$$$$$$$$$ ......@@+  ",
"  ..@$$$$$$$$$$$$$$$ ..####@@+  ",
"  ..@$$$$$$$$$$$$$$$  ..##@@ +  ",
"  ..@$$$$$$$$$$$$$$$  ..##@@ +  ",
"  ..@$$$$$$$$$$$$$$$   ..@@  +  ",
"  ..@$$$$$$$$$$$$$$$   ..@@  +  ",
"  ..@$$$$$$$$$$$$$$$    .@   +  ",
"  ..@$$$$$$$$$$$$$$$        %+  ",
"  ..@$$$$$$$$$$$$$$$ .......%+  ",
"  ..@$$$$$$$$$$$$$$$ .++++++%+  ",
"  ..@$$$$$$$$$$$$$$$ %%     %+  ",
"  ..@$$$$$$$$$$$$$$$        %+  ",
"  .#################%%%%%%%%%+  ",
"  .+++++++++++++++++++++++++++  ",
"                                ",
"                                ",
"                                ",
"                                ",
"                                ",
"                                ",
"                                "};
