/* XPM */
static char * combo_xpm[] = {
"32 32 6 1",
" 	c None",
".	c #585858",
"+	c #000000",
"@	c #FFFFFF",
"#	c #A0A0A0",
"$	c #DCDCDC",
"                                ",
"                                ",
"                                ",
"                                ",
"                                ",
"                                ",
"  ...........................+  ",
"  ...........................+  ",
"  ..@@@@@@@@@@@@@@##$       .+  ",
"  ..@@@@@@@@@@@@@@##$       .+  ",
"  ..@@@@@@@@@@@@@@##$       .+  ",
"  ..@@@@@@@@@@@@@@##$       .+  ",
"  ..@@@@@@@@@@@@@@##$       .+  ",
"  ..@@@@@@@@@@@@@@##$       .+  ",
"  ..@@@@@@@@@@@@@@##+++++++ .+  ",
"  ..@@@@@@@@@@@@@@##$+++++  .+  ",
"  ..@@@@@@@@@@@@@@##$ +++   .+  ",
"  ..@@@@@@@@@@@@@@##$  +    .+  ",
"  ..@@@@@@@@@@@@@@##$       .+  ",
"  ..@@@@@@@@@@@@@@##$       .+  ",
"  ..@@@@@@@@@@@@@@##$       .+  ",
"  ..@@@@@@@@@@@@@@##$       .+  ",
"  ..@@@@@@@@@@@@@@##$........+  ",
"  .################..........+  ",
"  .                             ",
"                                ",
"                                ",
"                                ",
"                                ",
"                                ",
"                                ",
"                                "};
