/* XPM */
static char*QLabel[]={
"32 32 7 1",
"# c #808080",
"a c #a0a0a0",
"e c #c3c3c3",
"b c #000000",
"c c #303030",
"d c #585858",
". c None",
"................................",
"................................",
".....................#..........",
"....................ab..........",
"....................bba.........",
"...................#bc#.........",
"..................abacd.........",
"..................c#.cc.........",
".................#b..cb.........",
"................aba..dba........",
"................c#...#b#........",
"...............#b....abd........",
"..............aba....ebc........",
"..............c#......cb........",
".............#b.......cba.......",
"............aba.......db#.......",
"............c#........#bd.......",
"...........#b.........abc.......",
"..........abbbbbbbbbbbbbb.......",
"..........c#...........cba......",
".........#b............db#......",
"........aba............#bd......",
"........c#.............abc......",
".......#b...............bbe.....",
"......aba...............bbd.....",
".....#c#aa.............dbbcd....",
"...dbbbbbbd..........bbbbbbbb...",
"................................",
"................................",
"................................",
"................................",
"................................"};
