/* XPM */
static char*kdlg_QListBox[]={
"32 32 8 1",
"a c #a0a0a0",
"d c #c3c3c3",
"f c #0000c0",
"e c #303030",
". c None",
"# c #585858",
"c c #dcdcdc",
"b c #ffffff",
"................................",
"................................",
"................................",
"................................",
"..############################..",
"..############################..",
"..##aabaaabaaabaaabaaabaacded#..",
"..##bbbbbbbbbbbbbbbbbbbbbcded#..",
"..##bbbbbbbbbbbbbbbbbbbbbcddd#..",
"..##aabaaabaaabaaabaaabaacddd#..",
"..##bbbbbbbbbbbbbbbbbbbbbcddd#..",
"..##bbbbbbbbbbbbbbbbbbbbbc####..",
"..##aabaaabaaabaaabaaabaac####..",
"..##bbbbbbbbbbbbbbbbbbbbbc####..",
"..##bbbbbbbbbbbbbbbbbbbbbc####..",
"..##aabaaabaaabaaabaaabaac####..",
"..##fffffffffffffffffffffcddd#..",
"..##fffffffffffffffffffffcddd#..",
"..##aabaaabaaabaaabaaabaacddd#..",
"..##bbbbbbbbbbbbbbbbbbbbbcddd#..",
"..##bbbbbbbbbbbbbbbbbbbbbcddd#..",
"..##aabaaabaaabaaabaaabaacddd#..",
"..##bbbbbbbbbbbbbbbbbbbbbcddd#..",
"..##bbbbbbbbbbbbbbbbbbbbbcddd#..",
"..##aabaaabaaabaaabaaabaacded#..",
"..##bbbbbbbbbbbbbbbbbbbbbcded#..",
"..##bbbbbbbbbbbbbbbbbbbbbcddd#..",
"..##ccccccccccccccccccccccccccc.",
"................................",
"................................",
"................................",
"................................"};
