/* XPM */
static char * pbtn_xpm[] = {
"42 18 44 1",
" 	c None",
".	c #C7C7C7",
"+	c #C9C9C9",
"@	c #CBCBCB",
"#	c #C4C4C4",
"$	c #C6C6C6",
"%	c #D8D8D8",
"&	c #D9D9D9",
"*	c #9F9F9F",
"=	c #BDBDBD",
"-	c #DCDCDC",
";	c #C8C8C8",
">	c #878787",
",	c #B9B9B9",
"'	c #A5A5A5",
")	c #B1B1B1",
"!	c #BEBEBE",
"~	c #BBBBBB",
"{	c #B8B8B8",
"]	c #9D9D9D",
"^	c #999999",
"/	c #8D8D8D",
"(	c #979797",
"_	c #959595",
":	c #BCBCBC",
"<	c #7C7C7C",
"[	c #A0A0A0",
"}	c #7D7D7D",
"|	c #737373",
"1	c #919191",
"2	c #8C8C8C",
"3	c #B4B4B4",
"4	c #909090",
"5	c #7E7E7E",
"6	c #868686",
"7	c #8A8A8A",
"8	c #A6A6A6",
"9	c #B5B5B5",
"0	c #B3B3B3",
"a	c #C5C5C5",
"b	c #7A7A7A",
"c	c #BABABA",
"d	c #B7B7B7",
"e	c #C3C3C3",
".+@@@@@@@@@@@@@@@@@@@@@@@@@@@@@@@@@@@@@@#$",
".%&&&&&&&&&&&&&&&&&&&&&&&&&&&&&&&&&&&&&&*=",
".-....;.....;.....;.................;...>,",
".-............;.........................>,",
".-..;.......;...;.;.....................>,",
".-..........;................;..........>,",
".-$...............#')!~.................>{",
".-................]^/(]_:...............>,",
".-..;.............<#[}|1................>,",
".-................234/56................>,",
".-.................78,90:..;....;...;;..>,",
".-..................;..;;;......;...;...>,",
".-......................................6{",
".-......................................>,",
".-...................;..................>,",
".-......;......;;...;;.....;;;...;..;;..>,",
".a**[*****[*[***[*[*****[*****[*****[***bc",
".d**********[*[****[[[*******[[****[[[[*'e"};
