/* XPM */
static char*kdlg_QWidget[]={
"32 32 7 1",
"d c #808080",
"a c #c3c3c3",
"e c #000080",
"# c #000000",
". c None",
"b c #585858",
"c c #ffffff",
"................................",
"................................",
"................................",
"...##########################...",
"...#........................#...",
"...#.........bbbbbbbbbbbbbc.#...",
"...#.#.##....b###########ac.#...",
"...#.#.#.#.#.b#ccccccccccac.#...",
"...#.#.#.#...b#ccccccccccac.#...",
"...#.#.##..#.baaaaaaaaaaaac.#...",
"...#.........cccccccccccccc.#...",
"...#........................#...",
"...#........................#...",
"...#.ddddddc.dddddddddddddc.#...",
"...#.d####ac.d###########ac.#...",
"...#.d##c#ac.d#ccc##cccccac.#...",
"...#.d#c##ac.d#c#cc#cc#ccac.#...",
"...#.d#cc#ac.d#eeeeeeeeeeac.#...",
"...#.daaaaac.d#eeeeeeeeeeac.#...",
"...#.ccccccc.d#cc#cccccccac.#...",
"...#.........d#####ccccccac.#...",
"...#.........d#cc#cc#c#ccac.#...",
"...#.........d###cc##cc#cac.#...",
"...#.........d#ccccccccccac.#...",
"...#.........d#ccccccccccac.#...",
"...#.........daaaaaaaaaaaac.#...",
"...#.........cccccccccccccc.#...",
"...#........................#...",
"...##########################...",
"................................",
"................................",
"................................"};
