/* XPM */
static char * rdbtn_xpm[] = {
"20 20 4 1",
" 	c None",
".	c #C8C8C8",
"+	c #000000",
"@	c #FFFFFF",
"                    ",
"                    ",
" ...................",
" ...................",
" ...................",
" ........+++++......",
" .......+.@@@.+.....",
" ......+@@@@@@@.....",
" .....+.@@+++@@.....",
" .....+@@+++++@@....",
" ......@@+++++@@....",
" .....+@@+++++@@....",
" .....+.@@+++@@.....",
" ......+@@@@@@@.....",
" .........@@@.......",
" ...................",
" ...................",
" ...................",
"                    ",
"                    "};
