/* XPM */
static char*kdlg_QGroupBox[]={
"32 32 4 1",
"b c #808080",
". c None",
"a c #585858",
"# c #dcdcdc",
"................................",
"................................",
"................................",
"................................",
"................................",
"..############################..",
"..#aaaaaaaaaaaaaaaaaaaaaaaaaab..",
"..#a#########################b..",
"..#a#........................b..",
"..#a#........................b..",
"..#a#...a......aaaaaaaaa.....b..",
"..#a#..aaa.....a.......a.....b..",
"..#a#...a......aaaaaaaaa.....b..",
"..#a#........................b..",
"..#a#........................b..",
"..#a#........................b..",
"..#a#...a......aaaaaaaaa.....b..",
"..#a#..aaa.....a.......a.....b..",
"..#a#...a......aaaaaaaaa.....b..",
"..#a#........................b..",
"..#a#........................b..",
"..#a#........................b..",
"..#a#...a......aaaaaaaaa.....b..",
"..#a#..aaa.....a.......a.....b..",
"..#a#...a......aaaaaaaaa.....b..",
"..#a#........................b..",
"..#bbbbbbbbbbbbbbbbbbbbbbbbbbb..",
"................................",
"................................",
"................................",
"................................",
"................................"};
