/* XPM */
static char*kdlg_QScrollBar[]={
"32 32 6 1",
"a c #a0a0a0",
"d c #c3c3c3",
"c c #000000",
". c None",
"# c #585858",
"b c #dcdcdc",
"................................",
"................................",
"................................",
"................................",
"................................",
"................................",
"................................",
"................................",
"..############################..",
"..############################..",
"..##.....#aaaabbbbbbbb#.....a#..",
"..##.....#aaaabbbbbbbb#.....a#..",
"..##...c.#aaaabbbbbbbb#.c...a#..",
"..##..cc.#aaaabbbbbbbb#.cc..a#..",
"..##.ccc.#aaaabbbbbbbb#.ccc.a#..",
"..##.ccc.#aaaabbbbbbbb#.ccc.a#..",
"..##..cc.#aaaabbbbbbbb#.cc..a#..",
"..##...c.#aaaabbbbbbbb#.c...a#..",
"..##.....#aaaabbbbbbbb#.....a#..",
"..##.....#aaaabbbbbbbb#.....a#..",
"..############################..",
"..ddd...........................",
"................................",
"................................",
"................................",
"................................",
"................................",
"................................",
"................................",
"................................",
"................................",
"................................"};
