/* XPM */
static char*kdlg_QSlider[]={
"32 32 5 1",
"a c #808080",
"b c #a0a0a0",
". c None",
"# c #585858",
"c c #dcdcdc",
"................................",
"................................",
"................................",
"................................",
"................................",
"................................",
"................................",
"................................",
"................................",
"................................",
"..###########################...",
"..###########################...",
"..##aaaaaaaaaaaaaaaaaaaaaaaaa...",
"..##bbbbbbbb#..#..##bbbbbbbb....",
"..##bbbbbbbb#..#..##bbbbbbbb....",
"..##bbbbbbbb#..#..##bbbbbbbb....",
"..##bbbbbbbb#..#..##bbbbbbbb....",
"..##bbbbbbbb#..#..##bbbbbbbb....",
"..##bbbbbbbb#..#..##bbbbbbbb....",
"..##bbbbbbbb#..#..##bbbbbbbb....",
"..##bbbbbbbb########bbbbbbbb....",
"..##cccccccccccccccccccccccc....",
"................................",
"................................",
"................................",
"................................",
"................................",
"................................",
"................................",
"................................",
"................................",
"................................"};
