/* XPM */
static char * window_xpm[] = {
"30 23 21 1",
" 	c None",
".	c #776D68",
"+	c #956865",
"@	c #8B5552",
"#	c #81403D",
"$	c #864B47",
"%	c #7A7971",
"&	c #989996",
"*	c #BBA09F",
"=	c #BDA5A4",
"-	c #BA9F9D",
";	c #B89B9A",
">	c #B89D9C",
",	c #9B9893",
"'	c #A0B1AE",
")	c #C7C7C7",
"!	c #C8C8C8",
"~	c #A8B0AC",
"{	c #9EAEA9",
"]	c #C6C4C0",
"^	c #A7ACA6",
".++@########################$%",
"&*=-;;;;;;;;;;;;;;;;;;;;;;;;>,",
"'))))))))!!))))))))!!!!!!!!!!~",
"'!!!!)!!!!!))))))))!!!!!!!!!!~",
"'!!!!!!!!!!)!!!!!!!!!!!!!!!!!~",
"'))))))))))))))))))!!!!!!!!!!~",
"'))))))))!!))))))))!!!!!!!!!!~",
"'!))!)!!)!!))))))))!!!!!!!!!!~",
"'!!!!)!!!!!))))))))!!!!!!!!!!~",
"'!!!!!!!!!!)!))))))!!!!!!!!!!~",
"'!!!!!!!!!!)!!!!!)!!!!!!!!!!!~",
"'!!!!!!!!!!)!!!!!!!!!!!!!!!!!~",
"'))))))))))))))))))!!!!!!!!!!~",
"')))))))))!))))))))!!!!!!!!!!~",
"'))))))!)!!))))))))!!!!!!!!!!~",
"')))))!!)!!))))))))!!!!!!!!!!~",
"'!!!!)!!!!!))))))))!!!!!!!!!!~",
"'!!!!!!!!!!)!))))))!!!!!!!!!!~",
"'!!!!!!!!!!)!)!!!)!!!!!!!!!!!~",
"'!!!!!!!!!!)!!)!)))!!!!!!!!!!~",
"'!!!!!!!!!!)!!!!!)!!!!!!!!!!!~",
"'!!!!!!!!!!!!!!!!!!!!!!!!!!!!~",
"{]]]]]]]]]]]]]]]]]]]]]]]]]]]]^"};
